<?xml version="1.0" encoding="UTF-8"?>
<svg xmlns="http://www.w3.org/2000/svg" xmlns:xlink="http://www.w3.org/1999/xlink" width="px" height="50px" viewBox="0 0 83 50" version="1.1">
<g id="surface1">
<path style=" stroke:none;fill-rule:nonzero;fill:rgb(14.509804%,18.431373%,24.313725%);fill-opacity:1;" d="M 23.589844 18.242188 C 23.589844 19.257812 23.699219 20.082031 23.890625 20.6875 C 24.109375 21.292969 24.382812 21.949219 24.761719 22.664062 C 24.898438 22.882812 24.953125 23.105469 24.953125 23.296875 C 24.953125 23.570312 24.789062 23.847656 24.4375 24.121094 L 22.714844 25.273438 C 22.46875 25.441406 22.222656 25.523438 22.007812 25.523438 C 21.734375 25.523438 21.460938 25.382812 21.1875 25.136719 C 20.804688 24.726562 20.476562 24.285156 20.203125 23.847656 C 19.929688 23.378906 19.65625 22.855469 19.359375 22.226562 C 17.226562 24.753906 14.550781 26.015625 11.332031 26.015625 C 9.039062 26.015625 7.207031 25.355469 5.871094 24.039062 C 4.53125 22.71875 3.851562 20.960938 3.851562 18.765625 C 3.851562 16.429688 4.667969 14.53125 6.335938 13.105469 C 8 11.675781 10.210938 10.960938 13.023438 10.960938 C 13.953125 10.960938 14.90625 11.042969 15.917969 11.179688 C 16.925781 11.320312 17.964844 11.539062 19.058594 11.785156 L 19.058594 9.78125 C 19.058594 7.691406 18.621094 6.234375 17.773438 5.382812 C 16.898438 4.53125 15.425781 4.121094 13.324219 4.121094 C 12.367188 4.121094 11.386719 4.230469 10.375 4.476562 C 9.363281 4.726562 8.382812 5.027344 7.425781 5.410156 C 6.988281 5.605469 6.660156 5.714844 6.472656 5.769531 C 6.28125 5.824219 6.144531 5.851562 6.035156 5.851562 C 5.652344 5.851562 5.460938 5.578125 5.460938 5 L 5.460938 3.652344 C 5.460938 3.214844 5.515625 2.882812 5.652344 2.691406 C 5.789062 2.5 6.035156 2.308594 6.417969 2.117188 C 7.371094 1.621094 8.519531 1.207031 9.855469 0.878906 C 11.195312 0.523438 12.613281 0.355469 14.117188 0.355469 C 17.363281 0.355469 19.738281 1.097656 21.269531 2.582031 C 22.769531 4.066406 23.535156 6.320312 23.535156 9.339844 L 23.535156 18.242188 Z M 12.503906 22.417969 C 13.40625 22.417969 14.332031 22.253906 15.316406 21.921875 C 16.300781 21.59375 17.171875 20.988281 17.910156 20.164062 C 18.347656 19.644531 18.675781 19.066406 18.839844 18.40625 C 19.003906 17.746094 19.113281 16.949219 19.113281 16.015625 L 19.113281 14.863281 C 18.320312 14.671875 17.472656 14.503906 16.601562 14.394531 C 15.726562 14.285156 14.878906 14.230469 14.035156 14.230469 C 12.203125 14.230469 10.867188 14.589844 9.964844 15.328125 C 9.066406 16.070312 8.628906 17.117188 8.628906 18.488281 C 8.628906 19.78125 8.957031 20.742188 9.636719 21.402344 C 10.292969 22.089844 11.25 22.417969 12.503906 22.417969 Z M 34.429688 25.382812 C 33.9375 25.382812 33.609375 25.300781 33.390625 25.109375 C 33.171875 24.945312 32.980469 24.558594 32.816406 24.039062 L 26.402344 2.800781 C 26.238281 2.253906 26.15625 1.894531 26.15625 1.703125 C 26.15625 1.265625 26.375 1.015625 26.8125 1.015625 L 29.488281 1.015625 C 30.003906 1.015625 30.359375 1.097656 30.550781 1.292969 C 30.769531 1.457031 30.933594 1.839844 31.097656 2.363281 L 35.683594 20.550781 L 39.945312 2.363281 C 40.082031 1.8125 40.242188 1.457031 40.460938 1.292969 C 40.679688 1.125 41.0625 1.015625 41.554688 1.015625 L 43.738281 1.015625 C 44.257812 1.015625 44.613281 1.097656 44.832031 1.292969 C 45.050781 1.457031 45.242188 1.839844 45.351562 2.363281 L 49.664062 20.769531 L 54.386719 2.363281 C 54.550781 1.8125 54.742188 1.457031 54.933594 1.292969 C 55.152344 1.125 55.507812 1.015625 55.996094 1.015625 L 58.535156 1.015625 C 58.972656 1.015625 59.21875 1.234375 59.21875 1.703125 C 59.21875 1.839844 59.191406 1.976562 59.164062 2.144531 C 59.136719 2.308594 59.082031 2.527344 58.972656 2.828125 L 52.394531 24.066406 C 52.230469 24.617188 52.039062 24.972656 51.820312 25.136719 C 51.601562 25.300781 51.246094 25.410156 50.78125 25.410156 L 48.433594 25.410156 C 47.917969 25.410156 47.5625 25.328125 47.34375 25.136719 C 47.125 24.945312 46.933594 24.589844 46.824219 24.039062 L 42.59375 6.320312 L 38.386719 24.011719 C 38.25 24.558594 38.085938 24.917969 37.867188 25.109375 C 37.648438 25.300781 37.269531 25.382812 36.777344 25.382812 Z M 69.511719 26.125 C 68.09375 26.125 66.671875 25.960938 65.308594 25.632812 C 63.941406 25.300781 62.878906 24.945312 62.167969 24.53125 C 61.730469 24.285156 61.429688 24.011719 61.320312 23.765625 C 61.210938 23.515625 61.15625 23.242188 61.15625 22.996094 L 61.15625 21.59375 C 61.15625 21.015625 61.375 20.742188 61.785156 20.742188 C 61.949219 20.742188 62.113281 20.769531 62.277344 20.824219 C 62.441406 20.878906 62.6875 20.988281 62.960938 21.097656 C 63.886719 21.511719 64.898438 21.839844 65.964844 22.058594 C 67.054688 22.28125 68.121094 22.390625 69.210938 22.390625 C 70.933594 22.390625 72.269531 22.089844 73.199219 21.484375 C 74.125 20.878906 74.617188 20 74.617188 18.875 C 74.617188 18.105469 74.371094 17.472656 73.882812 16.949219 C 73.390625 16.429688 72.460938 15.960938 71.125 15.523438 L 67.164062 14.285156 C 65.171875 13.652344 63.695312 12.71875 62.796875 11.484375 C 61.894531 10.273438 61.429688 8.929688 61.429688 7.5 C 61.429688 6.347656 61.675781 5.328125 62.167969 4.449219 C 62.660156 3.570312 63.316406 2.800781 64.132812 2.199219 C 64.953125 1.566406 65.882812 1.097656 66.972656 0.769531 C 68.066406 0.441406 69.210938 0.300781 70.414062 0.300781 C 71.015625 0.300781 71.640625 0.328125 72.242188 0.410156 C 72.871094 0.496094 73.445312 0.605469 74.015625 0.714844 C 74.5625 0.851562 75.082031 0.988281 75.574219 1.152344 C 76.066406 1.320312 76.449219 1.484375 76.71875 1.648438 C 77.101562 1.867188 77.375 2.089844 77.539062 2.335938 C 77.703125 2.554688 77.785156 2.855469 77.785156 3.242188 L 77.785156 4.53125 C 77.785156 5.109375 77.566406 5.410156 77.15625 5.410156 C 76.9375 5.410156 76.582031 5.300781 76.121094 5.082031 C 74.5625 4.367188 72.816406 4.011719 70.878906 4.011719 C 69.320312 4.011719 68.09375 4.257812 67.246094 4.78125 C 66.398438 5.300781 65.964844 6.097656 65.964844 7.226562 C 65.964844 7.996094 66.234375 8.652344 66.78125 9.175781 C 67.328125 9.699219 68.339844 10.21875 69.785156 10.6875 L 73.664062 11.921875 C 75.628906 12.554688 77.046875 13.433594 77.894531 14.558594 C 78.742188 15.6875 79.148438 16.976562 79.148438 18.40625 C 79.148438 19.589844 78.90625 20.660156 78.441406 21.59375 C 77.949219 22.527344 77.292969 23.351562 76.449219 24.011719 C 75.601562 24.699219 74.589844 25.191406 73.417969 25.550781 C 72.1875 25.933594 70.90625 26.125 69.511719 26.125 Z M 69.511719 26.125 "/>
<path style=" stroke:none;fill-rule:evenodd;fill:rgb(100%,60%,0%);fill-opacity:1;" d="M 74.671875 39.476562 C 65.691406 46.152344 52.640625 49.699219 41.417969 49.699219 C 25.691406 49.699219 11.523438 43.847656 0.820312 34.121094 C -0.0273438 33.351562 0.738281 32.308594 1.746094 32.910156 C 13.324219 39.671875 27.601562 43.765625 42.375 43.765625 C 52.339844 43.765625 63.289062 41.675781 73.363281 37.390625 C 74.863281 36.703125 76.148438 38.378906 74.671875 39.476562 Z M 74.671875 39.476562 "/>
<path style=" stroke:none;fill-rule:evenodd;fill:rgb(100%,60%,0%);fill-opacity:1;" d="M 78.414062 35.191406 C 77.265625 33.707031 70.824219 34.476562 67.902344 34.835938 C 67.027344 34.945312 66.890625 34.175781 67.683594 33.597656 C 72.816406 29.972656 81.253906 31.015625 82.234375 32.226562 C 83.21875 33.460938 81.960938 41.949219 77.15625 46.015625 C 76.421875 46.648438 75.710938 46.320312 76.039062 45.496094 C 77.128906 42.773438 79.558594 36.648438 78.414062 35.191406 Z M 78.414062 35.191406 "/>
</g>
</svg>
