<?xml version="1.0" encoding="UTF-8"?>
<svg xmlns="http://www.w3.org/2000/svg" xmlns:xlink="http://www.w3.org/1999/xlink" width="px" height="50px" viewBox="0 0 96 50" version="1.1">
<g id="surface1">
<path style=" stroke:none;fill-rule:evenodd;fill:rgb(88.627451%,35.294118%,10.980392%);fill-opacity:1;" d="M 87.585938 25.207031 C 87.503906 25.03125 87.46875 24.941406 87.421875 24.855469 C 86.222656 22.566406 85.027344 20.277344 83.8125 17.988281 C 83.691406 17.757812 83.707031 17.625 83.875 17.425781 C 85.78125 15.191406 87.667969 12.941406 89.578125 10.714844 C 89.648438 10.636719 89.707031 10.550781 89.734375 10.414062 C 89.175781 10.558594 88.621094 10.699219 88.0625 10.847656 C 85.761719 11.460938 83.4375 12.070312 81.15625 12.691406 C 80.941406 12.75 80.84375 12.6875 80.734375 12.507812 C 79.429688 10.316406 78.113281 8.117188 76.789062 5.949219 C 76.722656 5.835938 76.648438 5.726562 76.503906 5.632812 C 76.398438 6.21875 76.289062 6.796875 76.183594 7.382812 C 75.820312 9.445312 75.453125 11.496094 75.085938 13.570312 C 75.046875 13.792969 74.992188 14.015625 74.972656 14.238281 C 74.957031 14.449219 74.847656 14.527344 74.652344 14.589844 C 71.9375 15.445312 69.226562 16.308594 66.511719 17.171875 C 66.394531 17.210938 66.277344 17.257812 66.148438 17.375 C 68.367188 18.261719 70.589844 19.144531 72.839844 20.042969 C 72.757812 20.109375 72.703125 20.160156 72.644531 20.199219 C 71.257812 21.097656 69.863281 22 68.480469 22.902344 C 68.3125 23.011719 68.183594 23.027344 67.996094 22.941406 C 66.335938 22.195312 64.664062 21.457031 63 20.714844 C 62.253906 20.382812 61.585938 19.9375 61.0625 19.296875 C 59.882812 17.847656 60.117188 16.203125 61.6875 15.183594 C 62.203125 14.851562 62.789062 14.605469 63.375 14.414062 C 66.035156 13.546875 68.707031 12.707031 71.359375 11.867188 C 71.585938 11.796875 71.6875 11.695312 71.730469 11.453125 C 72.089844 9.386719 72.457031 7.308594 72.828125 5.265625 C 73.027344 4.160156 73.132812 3.03125 73.667969 2.019531 C 73.871094 1.628906 74.117188 1.246094 74.414062 0.921875 C 75.476562 -0.257812 76.953125 -0.300781 78.085938 0.820312 C 78.464844 1.203125 78.789062 1.648438 79.066406 2.109375 C 80.300781 4.128906 81.515625 6.160156 82.738281 8.203125 C 82.882812 8.441406 83.011719 8.492188 83.273438 8.421875 C 86.25 7.621094 89.226562 6.832031 92.21875 6.042969 C 92.835938 5.878906 93.453125 5.820312 94.085938 5.9375 C 95.460938 6.195312 96.0625 7.242188 95.59375 8.578125 C 95.382812 9.183594 95.019531 9.691406 94.609375 10.179688 C 92.53125 12.632812 90.445312 15.097656 88.378906 17.539062 C 88.207031 17.742188 88.207031 17.882812 88.324219 18.109375 C 89.570312 20.464844 90.800781 22.8125 92.054688 25.191406 C 92.351562 25.753906 92.578125 26.34375 92.585938 26.988281 C 92.601562 28.460938 91.523438 29.667969 90.066406 29.882812 C 89.25 30.003906 88.488281 29.828125 87.722656 29.59375 C 85.855469 29.015625 83.988281 28.445312 82.109375 27.878906 C 81.933594 27.828125 81.867188 27.757812 81.835938 27.570312 C 81.621094 26.25 81.386719 24.933594 81.160156 23.613281 C 81.152344 23.574219 81.164062 23.535156 81.171875 23.457031 C 83.300781 24.046875 85.425781 24.628906 87.617188 25.238281 "/>
<path style=" stroke:none;fill-rule:evenodd;fill:rgb(23.529412%,22.745098%,24.313725%);fill-opacity:1;" d="M 83.886719 44.539062 C 82.203125 44.535156 80.523438 44.527344 78.828125 44.535156 C 78.605469 44.535156 78.480469 44.472656 78.355469 44.28125 C 76.363281 41.238281 74.347656 38.1875 72.375 35.15625 C 72.308594 35.0625 72.242188 34.96875 72.128906 34.804688 C 71.699219 38.082031 71.277344 41.300781 70.855469 44.515625 L 66.445312 44.515625 C 66.496094 44.085938 66.542969 43.667969 66.597656 43.253906 C 67.027344 39.945312 67.460938 36.667969 67.890625 33.359375 C 68.304688 30.203125 68.714844 27.046875 69.136719 23.894531 C 69.148438 23.800781 69.210938 23.679688 69.285156 23.628906 C 70.804688 22.636719 72.328125 21.652344 73.851562 20.671875 C 73.871094 20.65625 73.902344 20.65625 73.980469 20.632812 C 73.523438 24.15625 73.066406 27.652344 72.605469 31.148438 C 72.625 31.160156 72.640625 31.171875 72.660156 31.1875 C 75.050781 28.53125 77.441406 25.867188 79.878906 23.175781 C 79.945312 23.582031 80.007812 23.933594 80.070312 24.28125 C 80.238281 25.28125 80.40625 26.285156 80.585938 27.285156 C 80.625 27.488281 80.570312 27.609375 80.4375 27.753906 C 78.890625 29.375 77.351562 31 75.808594 32.640625 C 75.742188 32.710938 75.679688 32.785156 75.601562 32.871094 C 75.652344 32.949219 75.691406 33.023438 75.742188 33.09375 C 78.398438 36.835938 81.046875 40.578125 83.699219 44.320312 C 83.746094 44.390625 83.816406 44.441406 83.875 44.503906 L 83.875 44.5625 "/>
<path style=" stroke:none;fill-rule:evenodd;fill:rgb(23.529412%,22.745098%,24.313725%);fill-opacity:1;" d="M 31.765625 34.640625 C 31.699219 34.296875 31.648438 33.792969 31.496094 33.316406 C 30.757812 31.03125 28.421875 29.792969 26.007812 30.34375 C 23.351562 30.964844 21.441406 33.058594 21.195312 35.789062 C 20.992188 37.800781 22.074219 39.75 24.078125 40.460938 C 25.691406 41.042969 27.253906 40.800781 28.703125 39.929688 C 30.617188 38.78125 31.65625 37.070312 31.785156 34.640625 Z M 20.109375 43.148438 C 19.976562 44.132812 19.851562 45.054688 19.730469 45.984375 C 19.570312 47.214844 19.40625 48.449219 19.253906 49.695312 C 19.234375 49.839844 19.191406 49.902344 19.039062 49.902344 C 17.824219 49.898438 16.613281 49.898438 15.398438 49.894531 C 15.371094 49.894531 15.34375 49.882812 15.277344 49.863281 C 15.351562 49.28125 15.421875 48.695312 15.5 48.113281 C 15.765625 46.074219 16.03125 44.03125 16.304688 41.992188 C 16.617188 39.652344 16.859375 37.320312 17.257812 35 C 17.960938 30.886719 21.449219 27.359375 25.523438 26.464844 C 27.886719 25.949219 30.148438 26.1875 32.214844 27.523438 C 34.273438 28.855469 35.453125 30.804688 35.730469 33.214844 C 36.113281 36.648438 34.851562 39.496094 32.429688 41.875 C 30.832031 43.425781 28.914062 44.410156 26.726562 44.742188 C 24.453125 45.085938 22.316406 44.707031 20.402344 43.363281 C 20.332031 43.316406 20.257812 43.269531 20.136719 43.195312 "/>
<path style=" stroke:none;fill-rule:evenodd;fill:rgb(23.529412%,22.745098%,24.313725%);fill-opacity:1;" d="M 18.074219 23.660156 C 16.714844 24.675781 15.40625 25.652344 14.09375 26.632812 C 13.882812 26.300781 13.691406 25.964844 13.472656 25.652344 C 12.902344 24.851562 12.191406 24.253906 11.160156 24.183594 C 10.304688 24.125 9.570312 24.40625 8.988281 25.042969 C 8.464844 25.605469 8.398438 26.414062 8.882812 27.054688 C 9.421875 27.761719 10.007812 28.429688 10.609375 29.082031 C 11.605469 30.164062 12.644531 31.203125 13.632812 32.296875 C 14.527344 33.289062 15.246094 34.394531 15.46875 35.761719 C 15.734375 37.371094 15.414062 38.886719 14.65625 40.308594 C 13.25 42.921875 11.046875 44.453125 8.117188 44.917969 C 6.828125 45.125 5.542969 45.085938 4.292969 44.714844 C 2.625 44.222656 1.460938 43.125 0.714844 41.589844 C 0.453125 41.042969 0.25 40.464844 0.0117188 39.875 C 1.46875 39.09375 2.890625 38.328125 4.328125 37.558594 C 4.378906 37.679688 4.414062 37.78125 4.460938 37.875 C 4.707031 38.367188 4.90625 38.890625 5.210938 39.34375 C 6.113281 40.691406 7.570312 41.097656 9.035156 40.433594 C 9.414062 40.261719 9.78125 40.023438 10.09375 39.742188 C 11.042969 38.894531 11.222656 37.714844 10.519531 36.648438 C 10.113281 36.039062 9.609375 35.488281 9.113281 34.941406 C 7.9375 33.628906 6.710938 32.355469 5.566406 31.011719 C 4.773438 30.089844 4.234375 29.019531 4.0625 27.792969 C 3.875 26.445312 4.144531 25.179688 4.84375 24.050781 C 6.578125 21.234375 9.097656 19.785156 12.429688 19.875 C 14.332031 19.945312 15.851562 20.839844 17.023438 22.324219 C 17.375 22.761719 17.699219 23.21875 18.054688 23.695312 "/>
<path style=" stroke:none;fill-rule:evenodd;fill:rgb(23.529412%,22.745098%,24.313725%);fill-opacity:1;" d="M 50.269531 38.664062 C 50.046875 40.359375 49.839844 41.972656 49.621094 43.582031 C 49.609375 43.664062 49.546875 43.773438 49.476562 43.804688 C 46.179688 45.332031 41.859375 45.121094 39.175781 42.046875 C 37.726562 40.394531 37.121094 38.425781 37.210938 36.261719 C 37.421875 31.21875 41.589844 26.796875 46.585938 26.179688 C 49.5 25.820312 52.042969 26.609375 54.019531 28.882812 C 55.363281 30.429688 55.984375 32.285156 55.894531 34.324219 C 55.832031 35.675781 55.621094 37.011719 55.453125 38.347656 C 55.21875 40.246094 54.957031 42.152344 54.707031 44.039062 C 54.699219 44.105469 54.6875 44.171875 54.667969 44.257812 L 50.753906 44.257812 C 50.804688 43.820312 50.851562 43.394531 50.910156 42.96875 C 51.191406 40.773438 51.507812 38.574219 51.757812 36.378906 C 51.910156 35.011719 51.8125 33.65625 51.1875 32.390625 C 50.527344 31.042969 49.414062 30.328125 47.949219 30.175781 C 44.921875 29.851562 42.03125 31.960938 41.414062 34.9375 C 40.988281 36.910156 41.660156 38.804688 43.226562 39.855469 C 44.753906 40.875 46.371094 40.875 48.039062 40.21875 C 48.882812 39.882812 49.597656 39.351562 50.28125 38.636719 "/>
<path style=" stroke:none;fill-rule:evenodd;fill:rgb(23.529412%,22.745098%,24.313725%);fill-opacity:1;" d="M 66.925781 26.691406 C 66.746094 28.058594 66.566406 29.40625 66.386719 30.777344 C 65.554688 30.777344 64.742188 30.769531 63.925781 30.777344 C 63.265625 30.78125 62.664062 31.210938 62.464844 31.828125 C 62.386719 32.070312 62.359375 32.328125 62.324219 32.582031 C 61.910156 35.738281 61.5 38.863281 61.089844 41.984375 C 60.988281 42.777344 60.886719 43.570312 60.785156 44.375 L 56.683594 44.375 C 56.757812 43.769531 56.832031 43.1875 56.90625 42.601562 C 57.171875 40.566406 57.441406 38.519531 57.707031 36.507812 C 57.941406 34.75 58.148438 32.980469 58.421875 31.21875 C 58.789062 28.867188 61.121094 26.765625 63.480469 26.671875 C 64.609375 26.621094 65.742188 26.664062 66.90625 26.664062 "/>
<path style=" stroke:none;fill-rule:nonzero;fill:rgb(23.529412%,22.745098%,24.313725%);fill-opacity:1;" d="M 88.820312 44.539062 L 88.820312 42.808594 L 88.8125 42.808594 L 88.132812 44.539062 L 87.917969 44.539062 L 87.238281 42.808594 L 87.226562 42.808594 L 87.226562 44.539062 L 86.890625 44.539062 L 86.890625 42.464844 L 87.417969 42.464844 L 88.03125 44.042969 L 88.640625 42.464844 L 89.164062 42.464844 L 89.164062 44.539062 Z M 85.816406 42.742188 L 85.816406 44.539062 L 85.476562 44.539062 L 85.476562 42.742188 L 84.832031 42.742188 L 84.832031 42.464844 L 86.46875 42.464844 L 86.46875 42.742188 L 85.820312 42.742188 "/>
<path style=" stroke:none;fill-rule:nonzero;fill:rgb(23.529412%,22.745098%,24.313725%);fill-opacity:1;" d="M 23.53125 20.753906 L 24.546875 20.753906 L 24.304688 19.214844 Z M 24.707031 21.75 L 23.019531 21.75 L 22.484375 22.804688 L 21.285156 22.804688 L 23.921875 17.855469 L 25.078125 17.855469 L 25.972656 22.804688 L 24.867188 22.804688 L 24.707031 21.75 "/>
<path style=" stroke:none;fill-rule:nonzero;fill:rgb(23.529412%,22.745098%,24.313725%);fill-opacity:1;" d="M 30.75 18.867188 L 30.148438 18.867188 L 29.945312 20.007812 L 30.546875 20.007812 C 30.910156 20.007812 31.195312 19.769531 31.195312 19.320312 C 31.195312 19.019531 31.015625 18.867188 30.746094 18.867188 Z M 29.292969 17.871094 L 30.871094 17.871094 C 31.699219 17.871094 32.273438 18.367188 32.273438 19.214844 C 32.273438 20.285156 31.523438 21 30.449219 21 L 29.765625 21 L 29.445312 22.8125 L 28.417969 22.8125 L 29.285156 17.863281 "/>
<path style=" stroke:none;fill-rule:nonzero;fill:rgb(23.529412%,22.745098%,24.313725%);fill-opacity:1;" d="M 35.773438 20.753906 L 36.789062 20.753906 L 36.550781 19.214844 Z M 36.945312 21.75 L 35.261719 21.75 L 34.722656 22.804688 L 33.527344 22.804688 L 36.164062 17.855469 L 37.316406 17.855469 L 38.214844 22.804688 L 37.105469 22.804688 L 36.949219 21.75 "/>
<path style=" stroke:none;fill-rule:nonzero;fill:rgb(23.529412%,22.745098%,24.313725%);fill-opacity:1;" d="M 43.484375 22.640625 C 43.136719 22.800781 42.753906 22.894531 42.367188 22.894531 C 41.0625 22.894531 40.246094 21.914062 40.246094 20.6875 C 40.246094 19.117188 41.5625 17.796875 43.128906 17.796875 C 43.523438 17.796875 43.875 17.890625 44.167969 18.050781 L 44.023438 19.234375 C 43.804688 18.992188 43.453125 18.824219 43.023438 18.824219 C 42.125 18.824219 41.328125 19.640625 41.328125 20.582031 C 41.328125 21.300781 41.777344 21.863281 42.484375 21.863281 C 42.921875 21.863281 43.339844 21.695312 43.625 21.464844 L 43.488281 22.640625 "/>
<path style=" stroke:none;fill-rule:nonzero;fill:rgb(23.529412%,22.745098%,24.313725%);fill-opacity:1;" d="M 49.960938 20.816406 L 47.816406 20.816406 L 47.46875 22.804688 L 46.441406 22.804688 L 47.3125 17.855469 L 48.34375 17.855469 L 47.996094 19.8125 L 50.140625 19.8125 L 50.488281 17.855469 L 51.519531 17.855469 L 50.648438 22.804688 L 49.621094 22.804688 L 49.964844 20.816406 "/>
<path style=" stroke:none;fill-rule:nonzero;fill:rgb(23.529412%,22.745098%,24.313725%);fill-opacity:1;" d="M 53.664062 22.796875 L 54.53125 17.847656 L 57.265625 17.847656 L 57.089844 18.84375 L 55.390625 18.84375 L 55.214844 19.800781 L 56.777344 19.800781 L 56.605469 20.796875 L 55.042969 20.796875 L 54.867188 21.792969 L 56.570312 21.792969 L 56.398438 22.789062 L 53.664062 22.789062 "/>
</g>
</svg>
